<?xml version="1.0" encoding="UTF-8"?>
<!-- Created with Inkscape (http://www.inkscape.org/) -->
<svg width="64" height="64" version="1.1" viewBox="0 0 16.933 16.933" xmlns="http://www.w3.org/2000/svg"><rect x="2.9104" y="52.123" width="95.539" height="39.476" fill="none" opacity=".1"/><g transform="matrix(.12965 0 0 .12965 -103.82 -78.931)" fill="#0055d4"><g transform="translate(367.86 -101.06)" fill="#0055d4" fill-rule="evenodd"><g transform="matrix(1.3204 0 0 1.3204 -138.33 -259.88)"><path d="m464.03 759.23-16.874 2.2588-12.182 29.592 19.157 25.877 50.297-6.8802 5.0514-12.229-10.645-13.871-5.2065 12.995-32.393 4.3364-9.5246-12.503z"/><path d="m454.24 788.3 19.107-46.414 32.121-4.2098 20.109 26.089-6.5086 15.509-19.719-25.583-15.704 2.2699-12.471 30.295 8.5467 10.503-17.574 2.3799z"/><path d="m474.21 816.08 10.907 13.943 31.404-4.204 12.598-30.455-30.477-39.515-13.609 1.9524-6.2033 15.144 12.324-1.8185 20.685 26.501-6.027 14.347z"/></g><path d="m481.11 809.01c0.20556 0.2667 0.41112 0.53338 0.61668 0.80007"/></g></g></svg>
